<mxfile host="app.diagrams.net" agent="Mozilla/5.0 (Windows NT 10.0; Win64; x64) AppleWebKit/537.36 (KHTML, like Gecko) Chrome/130.0.0.0 Safari/537.36 Edg/130.0.0.0" version="24.8.4">
  <diagram name="Page-1" id="xYY2zcuy8wZ8dOpaQo5z">
    <mxGraphModel dx="9747" dy="3780" grid="1" gridSize="10" guides="1" tooltips="1" connect="1" arrows="1" fold="1" page="0" pageScale="1" pageWidth="827" pageHeight="1169" background="#faf5f5" math="0" shadow="0">
      <root>
        <mxCell id="0" />
        <mxCell id="1" parent="0" />
        <mxCell id="MrWV8uH-ZMHnuV7tVJ55-80" value="{abstact}&#xa;Spieler&#xa;" style="swimlane;fontStyle=2;align=center;verticalAlign=top;childLayout=stackLayout;horizontal=1;startSize=42;horizontalStack=0;resizeParent=1;resizeLast=0;collapsible=1;marginBottom=0;rounded=0;shadow=0;strokeWidth=1;labelBackgroundColor=none;fillColor=#21C0A5;strokeColor=#006658;fontColor=#5C5C5C;" parent="1" vertex="1">
          <mxGeometry x="82" y="80" width="200" height="192" as="geometry">
            <mxRectangle x="380" y="78" width="160" height="26" as="alternateBounds" />
          </mxGeometry>
        </mxCell>
        <mxCell id="MrWV8uH-ZMHnuV7tVJ55-81" value="+ name: String" style="text;align=left;verticalAlign=top;spacingLeft=4;spacingRight=4;overflow=hidden;rotatable=0;points=[[0,0.5],[1,0.5]];portConstraint=eastwest;labelBackgroundColor=none;fontColor=#5C5C5C;" parent="MrWV8uH-ZMHnuV7tVJ55-80" vertex="1">
          <mxGeometry y="42" width="200" height="26" as="geometry" />
        </mxCell>
        <mxCell id="MrWV8uH-ZMHnuV7tVJ55-82" value="+ status: Status" style="text;align=left;verticalAlign=top;spacingLeft=4;spacingRight=4;overflow=hidden;rotatable=0;points=[[0,0.5],[1,0.5]];portConstraint=eastwest;rounded=0;shadow=0;html=0;labelBackgroundColor=none;fontColor=#5C5C5C;" parent="MrWV8uH-ZMHnuV7tVJ55-80" vertex="1">
          <mxGeometry y="68" width="200" height="26" as="geometry" />
        </mxCell>
        <mxCell id="MrWV8uH-ZMHnuV7tVJ55-83" value="- liebespartner: Spieler &#xa;(optional) &#xa;" style="text;align=left;verticalAlign=top;spacingLeft=4;spacingRight=4;overflow=hidden;rotatable=0;points=[[0,0.5],[1,0.5]];portConstraint=eastwest;rounded=0;shadow=0;html=0;labelBackgroundColor=none;fontColor=#5C5C5C;" parent="MrWV8uH-ZMHnuV7tVJ55-80" vertex="1">
          <mxGeometry y="94" width="200" height="52" as="geometry" />
        </mxCell>
        <mxCell id="MrWV8uH-ZMHnuV7tVJ55-84" style="edgeStyle=orthogonalEdgeStyle;rounded=0;orthogonalLoop=1;jettySize=auto;html=1;labelBackgroundColor=none;strokeColor=#006658;fontColor=default;" parent="MrWV8uH-ZMHnuV7tVJ55-80" source="MrWV8uH-ZMHnuV7tVJ55-80" target="MrWV8uH-ZMHnuV7tVJ55-82" edge="1">
          <mxGeometry relative="1" as="geometry" />
        </mxCell>
        <mxCell id="MrWV8uH-ZMHnuV7tVJ55-85" value="abstimmen" style="edgeLabel;html=1;align=center;verticalAlign=middle;resizable=0;points=[];labelBackgroundColor=none;fontColor=#5C5C5C;" parent="MrWV8uH-ZMHnuV7tVJ55-84" vertex="1" connectable="0">
          <mxGeometry x="0.5053" y="-2" relative="1" as="geometry">
            <mxPoint as="offset" />
          </mxGeometry>
        </mxCell>
        <mxCell id="MrWV8uH-ZMHnuV7tVJ55-86" value="Dorfbewohner" style="swimlane;fontStyle=0;align=center;verticalAlign=top;childLayout=stackLayout;horizontal=1;startSize=26;horizontalStack=0;resizeParent=1;resizeLast=0;collapsible=1;marginBottom=0;rounded=0;shadow=0;strokeWidth=1;labelBackgroundColor=none;fillColor=#21C0A5;strokeColor=#006658;fontColor=#5C5C5C;" parent="1" vertex="1">
          <mxGeometry x="-178" y="528" width="160" height="140" as="geometry">
            <mxRectangle x="130" y="380" width="160" height="26" as="alternateBounds" />
          </mxGeometry>
        </mxCell>
        <mxCell id="MrWV8uH-ZMHnuV7tVJ55-87" value="" style="line;html=1;strokeWidth=1;align=left;verticalAlign=middle;spacingTop=-1;spacingLeft=3;spacingRight=3;rotatable=0;labelPosition=right;points=[];portConstraint=eastwest;labelBackgroundColor=none;fillColor=#21C0A5;strokeColor=#006658;fontColor=#5C5C5C;" parent="MrWV8uH-ZMHnuV7tVJ55-86" vertex="1">
          <mxGeometry y="26" width="160" height="24" as="geometry" />
        </mxCell>
        <mxCell id="MrWV8uH-ZMHnuV7tVJ55-88" value="" style="endArrow=block;endSize=10;endFill=0;shadow=0;strokeWidth=1;rounded=0;curved=0;edgeStyle=elbowEdgeStyle;elbow=vertical;labelBackgroundColor=none;strokeColor=#006658;fontColor=default;" parent="1" source="MrWV8uH-ZMHnuV7tVJ55-86" target="MrWV8uH-ZMHnuV7tVJ55-80" edge="1">
          <mxGeometry width="160" relative="1" as="geometry">
            <mxPoint x="-98" y="213" as="sourcePoint" />
            <mxPoint x="-98" y="213" as="targetPoint" />
          </mxGeometry>
        </mxCell>
        <mxCell id="MrWV8uH-ZMHnuV7tVJ55-89" value="WerwÃ¶lfe" style="swimlane;fontStyle=0;align=center;verticalAlign=top;childLayout=stackLayout;horizontal=1;startSize=26;horizontalStack=0;resizeParent=1;resizeLast=0;collapsible=1;marginBottom=0;rounded=0;shadow=0;strokeWidth=1;labelBackgroundColor=none;fillColor=#21C0A5;strokeColor=#006658;fontColor=#5C5C5C;" parent="1" vertex="1">
          <mxGeometry x="382" y="528" width="180" height="80" as="geometry">
            <mxRectangle x="340" y="380" width="170" height="26" as="alternateBounds" />
          </mxGeometry>
        </mxCell>
        <mxCell id="MrWV8uH-ZMHnuV7tVJ55-90" value="" style="line;html=1;strokeWidth=1;align=left;verticalAlign=middle;spacingTop=-1;spacingLeft=3;spacingRight=3;rotatable=0;labelPosition=right;points=[];portConstraint=eastwest;labelBackgroundColor=none;fillColor=#21C0A5;strokeColor=#006658;fontColor=#5C5C5C;" parent="MrWV8uH-ZMHnuV7tVJ55-89" vertex="1">
          <mxGeometry y="26" width="180" height="24" as="geometry" />
        </mxCell>
        <mxCell id="MrWV8uH-ZMHnuV7tVJ55-91" value="- umbringen ( opfer: Spieler )" style="text;html=1;align=left;verticalAlign=middle;resizable=0;points=[];autosize=1;strokeColor=none;fillColor=none;labelBackgroundColor=none;fontColor=#5C5C5C;" parent="MrWV8uH-ZMHnuV7tVJ55-89" vertex="1">
          <mxGeometry y="50" width="180" height="30" as="geometry" />
        </mxCell>
        <mxCell id="MrWV8uH-ZMHnuV7tVJ55-92" value="" style="endArrow=block;endSize=10;endFill=0;shadow=0;strokeWidth=1;rounded=0;curved=0;edgeStyle=elbowEdgeStyle;elbow=vertical;labelBackgroundColor=none;strokeColor=#006658;fontColor=default;" parent="1" source="MrWV8uH-ZMHnuV7tVJ55-89" target="MrWV8uH-ZMHnuV7tVJ55-80" edge="1">
          <mxGeometry width="160" relative="1" as="geometry">
            <mxPoint x="-88" y="383" as="sourcePoint" />
            <mxPoint x="12" y="281" as="targetPoint" />
          </mxGeometry>
        </mxCell>
        <mxCell id="MrWV8uH-ZMHnuV7tVJ55-93" style="edgeStyle=orthogonalEdgeStyle;rounded=0;orthogonalLoop=1;jettySize=auto;html=1;endArrow=block;endSize=10;endFill=0;shadow=0;strokeWidth=1;startArrow=none;exitX=0.5;exitY=0;exitDx=0;exitDy=0;labelBackgroundColor=none;strokeColor=#006658;fontColor=default;" parent="1" source="MrWV8uH-ZMHnuV7tVJ55-94" edge="1">
          <mxGeometry relative="1" as="geometry">
            <mxPoint x="-178" y="608" as="targetPoint" />
            <Array as="points">
              <mxPoint x="-498" y="608" />
            </Array>
          </mxGeometry>
        </mxCell>
        <mxCell id="MrWV8uH-ZMHnuV7tVJ55-94" value="Seher" style="swimlane;fontStyle=0;align=center;verticalAlign=top;childLayout=stackLayout;horizontal=1;startSize=26;horizontalStack=0;resizeParent=1;resizeLast=0;collapsible=1;marginBottom=0;rounded=0;shadow=0;strokeWidth=1;labelBackgroundColor=none;fillColor=#21C0A5;strokeColor=#006658;fontColor=#5C5C5C;" parent="1" vertex="1">
          <mxGeometry x="-578" y="928" width="160" height="140" as="geometry">
            <mxRectangle x="-50" y="750" width="160" height="26" as="alternateBounds" />
          </mxGeometry>
        </mxCell>
        <mxCell id="MrWV8uH-ZMHnuV7tVJ55-95" value="" style="line;html=1;strokeWidth=1;align=left;verticalAlign=middle;spacingTop=-1;spacingLeft=3;spacingRight=3;rotatable=0;labelPosition=right;points=[];portConstraint=eastwest;labelBackgroundColor=none;fillColor=#21C0A5;strokeColor=#006658;fontColor=#5C5C5C;" parent="MrWV8uH-ZMHnuV7tVJ55-94" vertex="1">
          <mxGeometry y="26" width="160" height="24" as="geometry" />
        </mxCell>
        <mxCell id="MrWV8uH-ZMHnuV7tVJ55-96" value="- sehen ( spieler: Spieler )" style="text;align=left;verticalAlign=top;spacingLeft=4;spacingRight=4;overflow=hidden;rotatable=0;points=[[0,0.5],[1,0.5]];portConstraint=eastwest;fontStyle=0;labelBackgroundColor=none;fontColor=#5C5C5C;" parent="MrWV8uH-ZMHnuV7tVJ55-94" vertex="1">
          <mxGeometry y="50" width="160" height="26" as="geometry" />
        </mxCell>
        <mxCell id="MrWV8uH-ZMHnuV7tVJ55-97" style="edgeStyle=orthogonalEdgeStyle;rounded=0;orthogonalLoop=1;jettySize=auto;html=1;endArrow=block;endSize=10;endFill=0;shadow=0;strokeWidth=1;exitX=0.5;exitY=0;exitDx=0;exitDy=0;labelBackgroundColor=none;strokeColor=#006658;fontColor=default;" parent="1" source="MrWV8uH-ZMHnuV7tVJ55-98" edge="1">
          <mxGeometry relative="1" as="geometry">
            <mxPoint x="-98" y="668" as="targetPoint" />
            <Array as="points">
              <mxPoint x="-98" y="678" />
              <mxPoint x="-98" y="678" />
            </Array>
          </mxGeometry>
        </mxCell>
        <mxCell id="MrWV8uH-ZMHnuV7tVJ55-98" value="Heiler" style="swimlane;fontStyle=0;align=center;verticalAlign=top;childLayout=stackLayout;horizontal=1;startSize=26;horizontalStack=0;resizeParent=1;resizeLast=0;collapsible=1;marginBottom=0;rounded=0;shadow=0;strokeWidth=1;labelBackgroundColor=none;fillColor=#21C0A5;strokeColor=#006658;fontColor=#5C5C5C;" parent="1" vertex="1">
          <mxGeometry x="-178" y="928" width="160" height="140" as="geometry">
            <mxRectangle x="130" y="380" width="160" height="26" as="alternateBounds" />
          </mxGeometry>
        </mxCell>
        <mxCell id="MrWV8uH-ZMHnuV7tVJ55-99" value="" style="line;html=1;strokeWidth=1;align=left;verticalAlign=middle;spacingTop=-1;spacingLeft=3;spacingRight=3;rotatable=0;labelPosition=right;points=[];portConstraint=eastwest;labelBackgroundColor=none;fillColor=#21C0A5;strokeColor=#006658;fontColor=#5C5C5C;" parent="MrWV8uH-ZMHnuV7tVJ55-98" vertex="1">
          <mxGeometry y="26" width="160" height="24" as="geometry" />
        </mxCell>
        <mxCell id="MrWV8uH-ZMHnuV7tVJ55-100" value="- schÃ¼tzen ( spieler: Spieler)" style="text;align=left;verticalAlign=top;spacingLeft=4;spacingRight=4;overflow=hidden;rotatable=0;points=[[0,0.5],[1,0.5]];portConstraint=eastwest;fontStyle=0;labelBackgroundColor=none;fontColor=#5C5C5C;" parent="MrWV8uH-ZMHnuV7tVJ55-98" vertex="1">
          <mxGeometry y="50" width="160" height="26" as="geometry" />
        </mxCell>
        <mxCell id="MrWV8uH-ZMHnuV7tVJ55-101" style="edgeStyle=orthogonalEdgeStyle;rounded=0;orthogonalLoop=1;jettySize=auto;html=1;endArrow=block;endSize=10;endFill=0;shadow=0;strokeWidth=1;entryX=0.75;entryY=1;entryDx=0;entryDy=0;labelBackgroundColor=none;strokeColor=#006658;fontColor=default;" parent="1" source="MrWV8uH-ZMHnuV7tVJ55-102" target="MrWV8uH-ZMHnuV7tVJ55-86" edge="1">
          <mxGeometry relative="1" as="geometry">
            <mxPoint x="-58" y="678" as="targetPoint" />
            <Array as="points">
              <mxPoint x="102" y="868" />
              <mxPoint x="-58" y="868" />
            </Array>
          </mxGeometry>
        </mxCell>
        <mxCell id="MrWV8uH-ZMHnuV7tVJ55-102" value="Amor" style="swimlane;fontStyle=0;align=center;verticalAlign=top;childLayout=stackLayout;horizontal=1;startSize=26;horizontalStack=0;resizeParent=1;resizeLast=0;collapsible=1;marginBottom=0;rounded=0;shadow=0;strokeWidth=1;labelBackgroundColor=none;fillColor=#21C0A5;strokeColor=#006658;fontColor=#5C5C5C;" parent="1" vertex="1">
          <mxGeometry x="22" y="928" width="160" height="140" as="geometry">
            <mxRectangle x="130" y="380" width="160" height="26" as="alternateBounds" />
          </mxGeometry>
        </mxCell>
        <mxCell id="MrWV8uH-ZMHnuV7tVJ55-103" value="" style="line;html=1;strokeWidth=1;align=left;verticalAlign=middle;spacingTop=-1;spacingLeft=3;spacingRight=3;rotatable=0;labelPosition=right;points=[];portConstraint=eastwest;labelBackgroundColor=none;fillColor=#21C0A5;strokeColor=#006658;fontColor=#5C5C5C;" parent="MrWV8uH-ZMHnuV7tVJ55-102" vertex="1">
          <mxGeometry y="26" width="160" height="24" as="geometry" />
        </mxCell>
        <mxCell id="MrWV8uH-ZMHnuV7tVJ55-104" value="- paarErnennen( spieler1:&#xa;Spieler, spieler2: Spieler ) " style="text;align=left;verticalAlign=top;spacingLeft=4;spacingRight=4;overflow=hidden;rotatable=0;points=[[0,0.5],[1,0.5]];portConstraint=eastwest;fontStyle=0;labelBackgroundColor=none;fontColor=#5C5C5C;" parent="MrWV8uH-ZMHnuV7tVJ55-102" vertex="1">
          <mxGeometry y="50" width="160" height="44" as="geometry" />
        </mxCell>
        <mxCell id="MrWV8uH-ZMHnuV7tVJ55-105" style="edgeStyle=orthogonalEdgeStyle;rounded=0;orthogonalLoop=1;jettySize=auto;html=1;endArrow=block;endSize=10;endFill=0;shadow=0;strokeWidth=1;exitX=0.5;exitY=0;exitDx=0;exitDy=0;labelBackgroundColor=none;strokeColor=#006658;fontColor=default;" parent="1" source="MrWV8uH-ZMHnuV7tVJ55-106" edge="1">
          <mxGeometry relative="1" as="geometry">
            <mxPoint x="-18" y="608" as="targetPoint" />
            <Array as="points">
              <mxPoint x="302" y="608" />
              <mxPoint x="-18" y="608" />
            </Array>
          </mxGeometry>
        </mxCell>
        <mxCell id="MrWV8uH-ZMHnuV7tVJ55-106" value="JÃ¤ger" style="swimlane;fontStyle=0;align=center;verticalAlign=top;childLayout=stackLayout;horizontal=1;startSize=26;horizontalStack=0;resizeParent=1;resizeLast=0;collapsible=1;marginBottom=0;rounded=0;shadow=0;strokeWidth=1;labelBackgroundColor=none;fillColor=#21C0A5;strokeColor=#006658;fontColor=#5C5C5C;" parent="1" vertex="1">
          <mxGeometry x="222" y="928" width="160" height="140" as="geometry">
            <mxRectangle x="130" y="380" width="160" height="26" as="alternateBounds" />
          </mxGeometry>
        </mxCell>
        <mxCell id="MrWV8uH-ZMHnuV7tVJ55-107" value="" style="line;html=1;strokeWidth=1;align=left;verticalAlign=middle;spacingTop=-1;spacingLeft=3;spacingRight=3;rotatable=0;labelPosition=right;points=[];portConstraint=eastwest;labelBackgroundColor=none;fillColor=#21C0A5;strokeColor=#006658;fontColor=#5C5C5C;" parent="MrWV8uH-ZMHnuV7tVJ55-106" vertex="1">
          <mxGeometry y="26" width="160" height="24" as="geometry" />
        </mxCell>
        <mxCell id="MrWV8uH-ZMHnuV7tVJ55-108" value="inDenTotMitnehmen( spieler:&#xa; Spieler )" style="text;align=left;verticalAlign=top;spacingLeft=4;spacingRight=4;overflow=hidden;rotatable=0;points=[[0,0.5],[1,0.5]];portConstraint=eastwest;fontStyle=0;labelBackgroundColor=none;fontColor=#5C5C5C;" parent="MrWV8uH-ZMHnuV7tVJ55-106" vertex="1">
          <mxGeometry y="50" width="160" height="46" as="geometry" />
        </mxCell>
        <mxCell id="MrWV8uH-ZMHnuV7tVJ55-109" style="edgeStyle=orthogonalEdgeStyle;rounded=0;orthogonalLoop=1;jettySize=auto;html=1;endArrow=block;endSize=10;endFill=0;shadow=0;strokeWidth=1;exitX=0.5;exitY=0;exitDx=0;exitDy=0;labelBackgroundColor=none;strokeColor=#006658;fontColor=default;" parent="1" source="MrWV8uH-ZMHnuV7tVJ55-123" edge="1">
          <mxGeometry relative="1" as="geometry">
            <mxPoint x="-138" y="668" as="targetPoint" />
            <Array as="points">
              <mxPoint x="-298" y="868" />
              <mxPoint x="-138" y="868" />
            </Array>
          </mxGeometry>
        </mxCell>
        <mxCell id="MrWV8uH-ZMHnuV7tVJ55-110" style="edgeStyle=orthogonalEdgeStyle;rounded=0;orthogonalLoop=1;jettySize=auto;html=1;entryX=0.5;entryY=1;entryDx=0;entryDy=0;strokeColor=#006658;align=center;verticalAlign=middle;fontFamily=Helvetica;fontSize=11;fontColor=default;labelBackgroundColor=none;endArrow=none;" parent="1" source="MrWV8uH-ZMHnuV7tVJ55-111" target="MrWV8uH-ZMHnuV7tVJ55-143" edge="1">
          <mxGeometry relative="1" as="geometry">
            <Array as="points">
              <mxPoint x="-200" y="1430" />
              <mxPoint x="-200" y="1430" />
            </Array>
          </mxGeometry>
        </mxCell>
        <mxCell id="MrWV8uH-ZMHnuV7tVJ55-111" value="ErzÃ¤hler" style="swimlane;fontStyle=2;align=center;verticalAlign=top;childLayout=stackLayout;horizontal=1;startSize=26;horizontalStack=0;resizeParent=1;resizeLast=0;collapsible=1;marginBottom=0;rounded=0;shadow=0;strokeWidth=1;labelBackgroundColor=none;fillColor=#21C0A5;strokeColor=#006658;fontColor=#5C5C5C;" parent="1" vertex="1">
          <mxGeometry x="-295" y="1480" width="200" height="138" as="geometry">
            <mxRectangle x="230" y="140" width="160" height="26" as="alternateBounds" />
          </mxGeometry>
        </mxCell>
        <mxCell id="MrWV8uH-ZMHnuV7tVJ55-112" value="+ name: String" style="text;align=left;verticalAlign=top;spacingLeft=4;spacingRight=4;overflow=hidden;rotatable=0;points=[[0,0.5],[1,0.5]];portConstraint=eastwest;labelBackgroundColor=none;fontColor=#5C5C5C;" parent="MrWV8uH-ZMHnuV7tVJ55-111" vertex="1">
          <mxGeometry y="26" width="200" height="26" as="geometry" />
        </mxCell>
        <mxCell id="MrWV8uH-ZMHnuV7tVJ55-113" value="" style="line;html=1;strokeWidth=1;align=left;verticalAlign=middle;spacingTop=-1;spacingLeft=3;spacingRight=3;rotatable=0;labelPosition=right;points=[];portConstraint=eastwest;labelBackgroundColor=none;fillColor=#21C0A5;strokeColor=#006658;fontColor=#5C5C5C;" parent="MrWV8uH-ZMHnuV7tVJ55-111" vertex="1">
          <mxGeometry y="52" width="200" height="8" as="geometry" />
        </mxCell>
        <mxCell id="MrWV8uH-ZMHnuV7tVJ55-114" value="- wecken( spieler: Spieler )&#xa;- rolleAufdecken( spieler: Spieler ) " style="text;align=left;verticalAlign=top;spacingLeft=4;spacingRight=4;overflow=hidden;rotatable=0;points=[[0,0.5],[1,0.5]];portConstraint=eastwest;labelBackgroundColor=none;fontColor=#5C5C5C;" parent="MrWV8uH-ZMHnuV7tVJ55-111" vertex="1">
          <mxGeometry y="60" width="200" height="50" as="geometry" />
        </mxCell>
        <mxCell id="MrWV8uH-ZMHnuV7tVJ55-115" style="edgeStyle=orthogonalEdgeStyle;rounded=0;orthogonalLoop=1;jettySize=auto;html=1;endArrow=block;endSize=10;endFill=0;shadow=0;strokeWidth=1;labelBackgroundColor=none;strokeColor=#006658;fontColor=default;entryX=0.25;entryY=1;entryDx=0;entryDy=0;" parent="1" source="MrWV8uH-ZMHnuV7tVJ55-116" target="MrWV8uH-ZMHnuV7tVJ55-129" edge="1">
          <mxGeometry relative="1" as="geometry">
            <mxPoint x="-578" y="1588" as="targetPoint" />
            <Array as="points">
              <mxPoint x="-578" y="1939" />
            </Array>
          </mxGeometry>
        </mxCell>
        <mxCell id="MrWV8uH-ZMHnuV7tVJ55-116" value="Tagphase" style="swimlane;fontStyle=2;align=center;verticalAlign=top;childLayout=stackLayout;horizontal=1;startSize=26;horizontalStack=0;resizeParent=1;resizeLast=0;collapsible=1;marginBottom=0;rounded=0;shadow=0;strokeWidth=1;labelBackgroundColor=none;fillColor=#21C0A5;strokeColor=#006658;fontColor=#5C5C5C;" parent="1" vertex="1">
          <mxGeometry x="-858" y="1884" width="160" height="110" as="geometry">
            <mxRectangle x="230" y="140" width="160" height="26" as="alternateBounds" />
          </mxGeometry>
        </mxCell>
        <mxCell id="MrWV8uH-ZMHnuV7tVJ55-117" value="+ abgestimmterSpieler: &#xa;Spieler: spieler&#xa;" style="text;align=left;verticalAlign=top;spacingLeft=4;spacingRight=4;overflow=hidden;rotatable=0;points=[[0,0.5],[1,0.5]];portConstraint=eastwest;labelBackgroundColor=none;fontColor=#5C5C5C;" parent="MrWV8uH-ZMHnuV7tVJ55-116" vertex="1">
          <mxGeometry y="26" width="160" height="44" as="geometry" />
        </mxCell>
        <mxCell id="MrWV8uH-ZMHnuV7tVJ55-118" value="" style="line;html=1;strokeWidth=1;align=left;verticalAlign=middle;spacingTop=-1;spacingLeft=3;spacingRight=3;rotatable=0;labelPosition=right;points=[];portConstraint=eastwest;labelBackgroundColor=none;fillColor=#21C0A5;strokeColor=#006658;fontColor=#5C5C5C;" parent="MrWV8uH-ZMHnuV7tVJ55-116" vertex="1">
          <mxGeometry y="70" width="160" height="38" as="geometry" />
        </mxCell>
        <mxCell id="MrWV8uH-ZMHnuV7tVJ55-119" style="edgeStyle=orthogonalEdgeStyle;rounded=0;orthogonalLoop=1;jettySize=auto;html=1;endArrow=block;endSize=10;endFill=0;shadow=0;strokeWidth=1;entryX=0.75;entryY=1;entryDx=0;entryDy=0;labelBackgroundColor=none;strokeColor=#006658;fontColor=default;" parent="1" source="MrWV8uH-ZMHnuV7tVJ55-120" target="MrWV8uH-ZMHnuV7tVJ55-129" edge="1">
          <mxGeometry relative="1" as="geometry">
            <mxPoint x="-478" y="1578" as="targetPoint" />
            <Array as="points">
              <mxPoint x="-498" y="1939" />
            </Array>
          </mxGeometry>
        </mxCell>
        <mxCell id="MrWV8uH-ZMHnuV7tVJ55-120" value="Nachtphase" style="swimlane;fontStyle=2;align=center;verticalAlign=top;childLayout=stackLayout;horizontal=1;startSize=26;horizontalStack=0;resizeParent=1;resizeLast=0;collapsible=1;marginBottom=0;rounded=0;shadow=0;strokeWidth=1;labelBackgroundColor=none;fillColor=#21C0A5;strokeColor=#006658;fontColor=#5C5C5C;" parent="1" vertex="1">
          <mxGeometry x="-378" y="1884" width="160" height="110" as="geometry">
            <mxRectangle x="230" y="140" width="160" height="26" as="alternateBounds" />
          </mxGeometry>
        </mxCell>
        <mxCell id="MrWV8uH-ZMHnuV7tVJ55-121" value="+ gefressenerSpieler:&#xa; list[ spieler:Spieler ]&#xa;" style="text;align=left;verticalAlign=top;spacingLeft=4;spacingRight=4;overflow=hidden;rotatable=0;points=[[0,0.5],[1,0.5]];portConstraint=eastwest;labelBackgroundColor=none;fontColor=#5C5C5C;" parent="MrWV8uH-ZMHnuV7tVJ55-120" vertex="1">
          <mxGeometry y="26" width="160" height="44" as="geometry" />
        </mxCell>
        <mxCell id="MrWV8uH-ZMHnuV7tVJ55-122" value="" style="line;html=1;strokeWidth=1;align=left;verticalAlign=middle;spacingTop=-1;spacingLeft=3;spacingRight=3;rotatable=0;labelPosition=right;points=[];portConstraint=eastwest;labelBackgroundColor=none;fillColor=#21C0A5;strokeColor=#006658;fontColor=#5C5C5C;" parent="MrWV8uH-ZMHnuV7tVJ55-120" vertex="1">
          <mxGeometry y="70" width="160" height="38" as="geometry" />
        </mxCell>
        <mxCell id="MrWV8uH-ZMHnuV7tVJ55-123" value="Hexe" style="swimlane;fontStyle=0;align=center;verticalAlign=top;childLayout=stackLayout;horizontal=1;startSize=26;horizontalStack=0;resizeParent=1;resizeLast=0;collapsible=1;marginBottom=0;rounded=0;shadow=0;strokeWidth=1;labelBackgroundColor=none;fillColor=#21C0A5;strokeColor=#006658;fontColor=#5C5C5C;" parent="1" vertex="1">
          <mxGeometry x="-378" y="928" width="160" height="140" as="geometry">
            <mxRectangle x="130" y="380" width="160" height="26" as="alternateBounds" />
          </mxGeometry>
        </mxCell>
        <mxCell id="MrWV8uH-ZMHnuV7tVJ55-124" value="- hatHeiltrank: bool" style="text;align=left;verticalAlign=top;spacingLeft=4;spacingRight=4;overflow=hidden;rotatable=0;points=[[0,0.5],[1,0.5]];portConstraint=eastwest;labelBackgroundColor=none;fontColor=#5C5C5C;" parent="MrWV8uH-ZMHnuV7tVJ55-123" vertex="1">
          <mxGeometry y="26" width="160" height="26" as="geometry" />
        </mxCell>
        <mxCell id="MrWV8uH-ZMHnuV7tVJ55-125" value="- hatGifttrank: bool" style="text;align=left;verticalAlign=top;spacingLeft=4;spacingRight=4;overflow=hidden;rotatable=0;points=[[0,0.5],[1,0.5]];portConstraint=eastwest;rounded=0;shadow=0;html=0;labelBackgroundColor=none;fontColor=#5C5C5C;" parent="MrWV8uH-ZMHnuV7tVJ55-123" vertex="1">
          <mxGeometry y="52" width="160" height="26" as="geometry" />
        </mxCell>
        <mxCell id="MrWV8uH-ZMHnuV7tVJ55-126" value="" style="line;html=1;strokeWidth=1;align=left;verticalAlign=middle;spacingTop=-1;spacingLeft=3;spacingRight=3;rotatable=0;labelPosition=right;points=[];portConstraint=eastwest;labelBackgroundColor=none;fillColor=#21C0A5;strokeColor=#006658;fontColor=#5C5C5C;" parent="MrWV8uH-ZMHnuV7tVJ55-123" vertex="1">
          <mxGeometry y="78" width="160" height="8" as="geometry" />
        </mxCell>
        <mxCell id="MrWV8uH-ZMHnuV7tVJ55-127" value="- tÃ¶ten ( spieler: Spieler ) " style="text;align=left;verticalAlign=top;spacingLeft=4;spacingRight=4;overflow=hidden;rotatable=0;points=[[0,0.5],[1,0.5]];portConstraint=eastwest;fontStyle=0;labelBackgroundColor=none;fontColor=#5C5C5C;" parent="MrWV8uH-ZMHnuV7tVJ55-123" vertex="1">
          <mxGeometry y="86" width="160" height="26" as="geometry" />
        </mxCell>
        <mxCell id="MrWV8uH-ZMHnuV7tVJ55-128" value="- heilen ( opfer: Spieler ) " style="text;align=left;verticalAlign=top;spacingLeft=4;spacingRight=4;overflow=hidden;rotatable=0;points=[[0,0.5],[1,0.5]];portConstraint=eastwest;labelBackgroundColor=none;fontColor=#5C5C5C;" parent="MrWV8uH-ZMHnuV7tVJ55-123" vertex="1">
          <mxGeometry y="112" width="160" height="28" as="geometry" />
        </mxCell>
        <mxCell id="MrWV8uH-ZMHnuV7tVJ55-129" value="{abstract}&#xa;Phase " style="swimlane;fontStyle=2;align=center;verticalAlign=top;childLayout=stackLayout;horizontal=1;startSize=50;horizontalStack=0;resizeParent=1;resizeLast=0;collapsible=1;marginBottom=0;rounded=0;shadow=0;strokeWidth=1;labelBackgroundColor=none;fillColor=#21C0A5;strokeColor=#006658;fontColor=#5C5C5C;" parent="1" vertex="1">
          <mxGeometry x="-618" y="1448" width="160" height="132" as="geometry">
            <mxRectangle x="230" y="140" width="160" height="26" as="alternateBounds" />
          </mxGeometry>
        </mxCell>
        <mxCell id="MrWV8uH-ZMHnuV7tVJ55-130" value="&#xa;+ sonstige Tote: list[spieler] " style="text;align=left;verticalAlign=top;spacingLeft=4;spacingRight=4;overflow=hidden;rotatable=0;points=[[0,0.5],[1,0.5]];portConstraint=eastwest;labelBackgroundColor=none;fontColor=#5C5C5C;" parent="MrWV8uH-ZMHnuV7tVJ55-129" vertex="1">
          <mxGeometry y="50" width="160" height="44" as="geometry" />
        </mxCell>
        <mxCell id="MrWV8uH-ZMHnuV7tVJ55-131" value="" style="line;html=1;strokeWidth=1;align=left;verticalAlign=middle;spacingTop=-1;spacingLeft=3;spacingRight=3;rotatable=0;labelPosition=right;points=[];portConstraint=eastwest;labelBackgroundColor=none;fillColor=#21C0A5;strokeColor=#006658;fontColor=#5C5C5C;" parent="MrWV8uH-ZMHnuV7tVJ55-129" vertex="1">
          <mxGeometry y="94" width="160" height="38" as="geometry" />
        </mxCell>
        <mxCell id="MrWV8uH-ZMHnuV7tVJ55-132" value="&lt;&lt;enumeration&gt;&gt;&#xa;Status&#xa;" style="swimlane;fontStyle=2;align=center;verticalAlign=top;childLayout=stackLayout;horizontal=1;startSize=42;horizontalStack=0;resizeParent=1;resizeLast=0;collapsible=1;marginBottom=0;rounded=0;shadow=0;strokeWidth=1;labelBackgroundColor=none;fillColor=#21C0A5;strokeColor=#006658;fontColor=#5C5C5C;" parent="1" vertex="1">
          <mxGeometry x="400" y="80" width="200" height="192" as="geometry">
            <mxRectangle x="380" y="78" width="160" height="26" as="alternateBounds" />
          </mxGeometry>
        </mxCell>
        <mxCell id="MrWV8uH-ZMHnuV7tVJ55-133" value="wach" style="text;align=left;verticalAlign=top;spacingLeft=4;spacingRight=4;overflow=hidden;rotatable=0;points=[[0,0.5],[1,0.5]];portConstraint=eastwest;labelBackgroundColor=none;fontColor=#5C5C5C;" parent="MrWV8uH-ZMHnuV7tVJ55-132" vertex="1">
          <mxGeometry y="42" width="200" height="26" as="geometry" />
        </mxCell>
        <mxCell id="MrWV8uH-ZMHnuV7tVJ55-134" value="schlafend" style="text;align=left;verticalAlign=top;spacingLeft=4;spacingRight=4;overflow=hidden;rotatable=0;points=[[0,0.5],[1,0.5]];portConstraint=eastwest;rounded=0;shadow=0;html=0;labelBackgroundColor=none;fontColor=#5C5C5C;" parent="MrWV8uH-ZMHnuV7tVJ55-132" vertex="1">
          <mxGeometry y="68" width="200" height="26" as="geometry" />
        </mxCell>
        <mxCell id="MrWV8uH-ZMHnuV7tVJ55-135" value="tot&#xa;" style="text;align=left;verticalAlign=top;spacingLeft=4;spacingRight=4;overflow=hidden;rotatable=0;points=[[0,0.5],[1,0.5]];portConstraint=eastwest;rounded=0;shadow=0;html=0;labelBackgroundColor=none;fontColor=#5C5C5C;" parent="MrWV8uH-ZMHnuV7tVJ55-132" vertex="1">
          <mxGeometry y="94" width="200" height="52" as="geometry" />
        </mxCell>
        <mxCell id="MrWV8uH-ZMHnuV7tVJ55-136" value="" style="line;html=1;strokeWidth=1;align=left;verticalAlign=middle;spacingTop=-1;spacingLeft=3;spacingRight=3;rotatable=0;labelPosition=right;points=[];portConstraint=eastwest;labelBackgroundColor=none;fillColor=#21C0A5;strokeColor=#006658;fontColor=#5C5C5C;" parent="MrWV8uH-ZMHnuV7tVJ55-132" vertex="1">
          <mxGeometry y="146" width="200" height="8" as="geometry" />
        </mxCell>
        <mxCell id="MrWV8uH-ZMHnuV7tVJ55-137" value="1" style="text;html=1;align=center;verticalAlign=middle;resizable=0;points=[];autosize=1;strokeColor=none;fillColor=none;labelBackgroundColor=none;fontColor=#5C5C5C;" parent="1" vertex="1">
          <mxGeometry x="145" y="38" width="30" height="30" as="geometry" />
        </mxCell>
        <mxCell id="MrWV8uH-ZMHnuV7tVJ55-138" value="1" style="text;html=1;align=center;verticalAlign=middle;resizable=0;points=[];autosize=1;strokeColor=none;fillColor=none;labelBackgroundColor=none;fontColor=#5C5C5C;" parent="1" vertex="1">
          <mxGeometry x="25" y="148" width="30" height="30" as="geometry" />
        </mxCell>
        <mxCell id="MrWV8uH-ZMHnuV7tVJ55-139" style="edgeStyle=orthogonalEdgeStyle;rounded=0;orthogonalLoop=1;jettySize=auto;html=1;entryX=0.5;entryY=1;entryDx=0;entryDy=0;strokeColor=#006658;align=center;verticalAlign=middle;fontFamily=Helvetica;fontSize=11;fontColor=default;labelBackgroundColor=none;endArrow=none;" parent="1" source="MrWV8uH-ZMHnuV7tVJ55-143" target="MrWV8uH-ZMHnuV7tVJ55-94" edge="1">
          <mxGeometry relative="1" as="geometry" />
        </mxCell>
        <mxCell id="MrWV8uH-ZMHnuV7tVJ55-140" style="edgeStyle=orthogonalEdgeStyle;rounded=0;orthogonalLoop=1;jettySize=auto;html=1;entryX=0.5;entryY=1;entryDx=0;entryDy=0;strokeColor=#006658;align=center;verticalAlign=middle;fontFamily=Helvetica;fontSize=11;fontColor=default;labelBackgroundColor=none;endArrow=none;" parent="1" source="MrWV8uH-ZMHnuV7tVJ55-143" target="MrWV8uH-ZMHnuV7tVJ55-98" edge="1">
          <mxGeometry relative="1" as="geometry" />
        </mxCell>
        <mxCell id="MrWV8uH-ZMHnuV7tVJ55-141" style="edgeStyle=orthogonalEdgeStyle;rounded=0;orthogonalLoop=1;jettySize=auto;html=1;entryX=0.5;entryY=1;entryDx=0;entryDy=0;strokeColor=#006658;align=center;verticalAlign=middle;fontFamily=Helvetica;fontSize=11;fontColor=default;labelBackgroundColor=none;endArrow=none;" parent="1" source="MrWV8uH-ZMHnuV7tVJ55-143" target="MrWV8uH-ZMHnuV7tVJ55-102" edge="1">
          <mxGeometry relative="1" as="geometry" />
        </mxCell>
        <mxCell id="MrWV8uH-ZMHnuV7tVJ55-142" style="edgeStyle=orthogonalEdgeStyle;rounded=0;orthogonalLoop=1;jettySize=auto;html=1;entryX=0.5;entryY=1;entryDx=0;entryDy=0;strokeColor=#006658;align=center;verticalAlign=middle;fontFamily=Helvetica;fontSize=11;fontColor=default;labelBackgroundColor=none;endArrow=none;" parent="1" source="MrWV8uH-ZMHnuV7tVJ55-143" target="MrWV8uH-ZMHnuV7tVJ55-106" edge="1">
          <mxGeometry relative="1" as="geometry" />
        </mxCell>
        <mxCell id="MrWV8uH-ZMHnuV7tVJ55-143" value="Spiel" style="swimlane;fontStyle=0;align=center;verticalAlign=top;childLayout=stackLayout;horizontal=1;startSize=26;horizontalStack=0;resizeParent=1;resizeLast=0;collapsible=1;marginBottom=0;rounded=0;shadow=0;strokeWidth=1;labelBackgroundColor=none;fillColor=#21C0A5;strokeColor=#006658;fontColor=#5C5C5C;" parent="1" vertex="1">
          <mxGeometry x="-280" y="1160" width="160" height="140" as="geometry">
            <mxRectangle x="-50" y="750" width="160" height="26" as="alternateBounds" />
          </mxGeometry>
        </mxCell>
        <mxCell id="MrWV8uH-ZMHnuV7tVJ55-144" value="" style="line;html=1;strokeWidth=1;align=left;verticalAlign=middle;spacingTop=-1;spacingLeft=3;spacingRight=3;rotatable=0;labelPosition=right;points=[];portConstraint=eastwest;labelBackgroundColor=none;fillColor=#21C0A5;strokeColor=#006658;fontColor=#5C5C5C;" parent="MrWV8uH-ZMHnuV7tVJ55-143" vertex="1">
          <mxGeometry y="26" width="160" height="24" as="geometry" />
        </mxCell>
        <mxCell id="MrWV8uH-ZMHnuV7tVJ55-145" style="edgeStyle=orthogonalEdgeStyle;rounded=0;orthogonalLoop=1;jettySize=auto;html=1;entryX=0.257;entryY=0.996;entryDx=0;entryDy=0;entryPerimeter=0;strokeColor=#006658;align=center;verticalAlign=middle;fontFamily=Helvetica;fontSize=11;fontColor=default;labelBackgroundColor=none;endArrow=none;" parent="1" source="MrWV8uH-ZMHnuV7tVJ55-143" target="MrWV8uH-ZMHnuV7tVJ55-128" edge="1">
          <mxGeometry relative="1" as="geometry">
            <Array as="points">
              <mxPoint x="-200" y="1114" />
              <mxPoint x="-300" y="1114" />
              <mxPoint x="-300" y="1068" />
            </Array>
          </mxGeometry>
        </mxCell>
        <mxCell id="MrWV8uH-ZMHnuV7tVJ55-146" value="0..1" style="text;html=1;align=center;verticalAlign=middle;resizable=0;points=[];autosize=1;strokeColor=none;fillColor=none;labelBackgroundColor=none;fontColor=#5C5C5C;" parent="1" vertex="1">
          <mxGeometry x="300" y="1058" width="40" height="30" as="geometry" />
        </mxCell>
        <mxCell id="MrWV8uH-ZMHnuV7tVJ55-147" value="1" style="text;html=1;align=center;verticalAlign=middle;resizable=0;points=[];autosize=1;strokeColor=none;fillColor=none;labelBackgroundColor=none;fontColor=#5C5C5C;" parent="1" vertex="1">
          <mxGeometry x="110" y="1068" width="30" height="30" as="geometry" />
        </mxCell>
        <mxCell id="MrWV8uH-ZMHnuV7tVJ55-148" value="1" style="text;html=1;align=center;verticalAlign=middle;resizable=0;points=[];autosize=1;strokeColor=none;fillColor=none;labelBackgroundColor=none;fontColor=#5C5C5C;" parent="1" vertex="1">
          <mxGeometry x="-95" y="1068" width="30" height="30" as="geometry" />
        </mxCell>
        <mxCell id="MrWV8uH-ZMHnuV7tVJ55-149" value="1" style="text;html=1;align=center;verticalAlign=middle;resizable=0;points=[];autosize=1;strokeColor=none;fillColor=none;labelBackgroundColor=none;fontColor=#5C5C5C;" parent="1" vertex="1">
          <mxGeometry x="-330" y="1068" width="30" height="30" as="geometry" />
        </mxCell>
        <mxCell id="MrWV8uH-ZMHnuV7tVJ55-150" value="1" style="text;html=1;align=center;verticalAlign=middle;resizable=0;points=[];autosize=1;strokeColor=none;fillColor=none;labelBackgroundColor=none;fontColor=#5C5C5C;" parent="1" vertex="1">
          <mxGeometry x="-480" y="1080" width="30" height="30" as="geometry" />
        </mxCell>
        <mxCell id="MrWV8uH-ZMHnuV7tVJ55-151" value="&lt;div&gt;1&lt;/div&gt;" style="text;html=1;align=center;verticalAlign=middle;resizable=0;points=[];autosize=1;strokeColor=none;fillColor=none;labelBackgroundColor=none;fontColor=#5C5C5C;" parent="1" vertex="1">
          <mxGeometry x="-135" y="1448" width="30" height="30" as="geometry" />
        </mxCell>
        <mxCell id="MrWV8uH-ZMHnuV7tVJ55-152" style="edgeStyle=orthogonalEdgeStyle;rounded=0;orthogonalLoop=1;jettySize=auto;html=1;entryX=1;entryY=0.75;entryDx=0;entryDy=0;strokeColor=#006658;align=center;verticalAlign=middle;fontFamily=Helvetica;fontSize=11;fontColor=default;labelBackgroundColor=none;endArrow=none;exitX=1;exitY=1;exitDx=0;exitDy=0;" parent="1" source="MrWV8uH-ZMHnuV7tVJ55-143" target="MrWV8uH-ZMHnuV7tVJ55-86" edge="1">
          <mxGeometry relative="1" as="geometry">
            <mxPoint x="2" y="1300" as="sourcePoint" />
            <Array as="points">
              <mxPoint x="-120" y="1280" />
              <mxPoint x="2" y="1280" />
              <mxPoint x="2" y="633" />
            </Array>
          </mxGeometry>
        </mxCell>
        <mxCell id="MrWV8uH-ZMHnuV7tVJ55-153" value="7-24" style="text;html=1;align=center;verticalAlign=middle;resizable=0;points=[];autosize=1;strokeColor=none;fillColor=none;labelBackgroundColor=none;fontColor=#5C5C5C;" parent="1" vertex="1">
          <mxGeometry x="-25" y="608" width="50" height="30" as="geometry" />
        </mxCell>
        <mxCell id="MrWV8uH-ZMHnuV7tVJ55-154" style="edgeStyle=orthogonalEdgeStyle;rounded=0;orthogonalLoop=1;jettySize=auto;html=1;entryX=0.5;entryY=1;entryDx=0;entryDy=0;strokeColor=#006658;align=center;verticalAlign=middle;fontFamily=Helvetica;fontSize=11;fontColor=default;labelBackgroundColor=none;endArrow=none;" parent="1" target="MrWV8uH-ZMHnuV7tVJ55-89" edge="1">
          <mxGeometry relative="1" as="geometry">
            <mxPoint x="-120" y="1280" as="sourcePoint" />
          </mxGeometry>
        </mxCell>
        <mxCell id="MrWV8uH-ZMHnuV7tVJ55-155" value="&lt;div&gt;1..4&lt;/div&gt;" style="text;html=1;align=center;verticalAlign=middle;resizable=0;points=[];autosize=1;strokeColor=none;fillColor=none;labelBackgroundColor=none;fontColor=#5C5C5C;" parent="1" vertex="1">
          <mxGeometry x="470" y="598" width="40" height="30" as="geometry" />
        </mxCell>
        <mxCell id="MrWV8uH-ZMHnuV7tVJ55-156" style="edgeStyle=orthogonalEdgeStyle;rounded=0;orthogonalLoop=1;jettySize=auto;html=1;entryX=0;entryY=0.75;entryDx=0;entryDy=0;strokeColor=#006658;align=center;verticalAlign=middle;fontFamily=Helvetica;fontSize=11;fontColor=default;labelBackgroundColor=none;endArrow=none;" parent="1" source="MrWV8uH-ZMHnuV7tVJ55-130" target="MrWV8uH-ZMHnuV7tVJ55-143" edge="1">
          <mxGeometry relative="1" as="geometry" />
        </mxCell>
        <mxCell id="MrWV8uH-ZMHnuV7tVJ55-157" value="1..n" style="text;html=1;align=center;verticalAlign=middle;whiteSpace=wrap;rounded=0;labelBackgroundColor=none;fontColor=#5C5C5C;" parent="1" vertex="1">
          <mxGeometry x="-458" y="1480" width="60" height="30" as="geometry" />
        </mxCell>
        <mxCell id="MrWV8uH-ZMHnuV7tVJ55-158" style="edgeStyle=orthogonalEdgeStyle;rounded=0;orthogonalLoop=1;jettySize=auto;html=1;entryX=-0.006;entryY=0.034;entryDx=0;entryDy=0;entryPerimeter=0;labelBackgroundColor=none;strokeColor=#006658;fontColor=default;" parent="1" source="MrWV8uH-ZMHnuV7tVJ55-80" target="MrWV8uH-ZMHnuV7tVJ55-135" edge="1">
          <mxGeometry relative="1" as="geometry">
            <Array as="points" />
          </mxGeometry>
        </mxCell>
        <mxCell id="AQxNOzw8yBJhHnTzYn_f-2" value="1" style="text;html=1;align=center;verticalAlign=middle;resizable=0;points=[];autosize=1;strokeColor=none;fillColor=none;labelBackgroundColor=none;fontColor=#5C5C5C;" parent="1" vertex="1">
          <mxGeometry x="-313" y="1200" width="30" height="30" as="geometry" />
        </mxCell>
        <mxCell id="AQxNOzw8yBJhHnTzYn_f-3" value="1" style="text;html=1;align=center;verticalAlign=middle;resizable=0;points=[];autosize=1;strokeColor=none;fillColor=none;labelBackgroundColor=none;fontColor=#5C5C5C;" parent="1" vertex="1">
          <mxGeometry x="-230" y="1130" width="30" height="30" as="geometry" />
        </mxCell>
        <mxCell id="AQxNOzw8yBJhHnTzYn_f-4" value="1" style="text;html=1;align=center;verticalAlign=middle;resizable=0;points=[];autosize=1;strokeColor=none;fillColor=none;labelBackgroundColor=none;fontColor=#5C5C5C;" parent="1" vertex="1">
          <mxGeometry x="-120" y="1200" width="30" height="30" as="geometry" />
        </mxCell>
        <mxCell id="AQxNOzw8yBJhHnTzYn_f-5" value="&lt;div&gt;1&lt;/div&gt;" style="text;html=1;align=center;verticalAlign=middle;resizable=0;points=[];autosize=1;strokeColor=none;fillColor=none;labelBackgroundColor=none;fontColor=#5C5C5C;" parent="1" vertex="1">
          <mxGeometry x="-200" y="1300" width="30" height="30" as="geometry" />
        </mxCell>
        <mxCell id="AQxNOzw8yBJhHnTzYn_f-6" value="&lt;div&gt;1&lt;/div&gt;" style="text;html=1;align=center;verticalAlign=middle;resizable=0;points=[];autosize=1;strokeColor=none;fillColor=none;labelBackgroundColor=none;fontColor=#5C5C5C;" parent="1" vertex="1">
          <mxGeometry x="-310" y="1270" width="30" height="30" as="geometry" />
        </mxCell>
        <mxCell id="zBunsPk-VvqKjOMoBHJh-1" value="&lt;div&gt;1&lt;/div&gt;" style="text;html=1;align=center;verticalAlign=middle;resizable=0;points=[];autosize=1;strokeColor=none;fillColor=none;labelBackgroundColor=none;fontColor=#5C5C5C;" vertex="1" parent="1">
          <mxGeometry x="-120" y="1250" width="30" height="30" as="geometry" />
        </mxCell>
      </root>
    </mxGraphModel>
  </diagram>
</mxfile>
